HIERARCHY
ROOT hip
{
	OFFSET 0.000000 0.000000 0.000000
	CHANNELS 6 Xposition Yposition Zposition Xrotation Zrotation Yrotation 
	JOINT abdomen
	{
		OFFSET 0.000000 3.422050 0.000000
		CHANNELS 3 Xrotation Zrotation Yrotation 
		JOINT chest
		{
			OFFSET 0.000000 8.486693 -0.684411
			CHANNELS 3 Xrotation Zrotation Yrotation 
			JOINT neck
			{
				OFFSET 0.000000 10.266162 -0.273764
				CHANNELS 3 Xrotation Zrotation Yrotation 
				JOINT head
				{
					OFFSET 0.000000 3.148285 0.000000
					CHANNELS 3 Xrotation Zrotation Yrotation 
					End Site
					{
						OFFSET 0.000000 3.148289 0.000000
					}
				}
			}
			JOINT lCollar
			{
				OFFSET 3.422053 6.707223 -0.821293
				CHANNELS 3 Yrotation Zrotation Xrotation 
				JOINT lShldr
				{
					OFFSET 3.285171 0.000000 0.000000
					CHANNELS 3 Zrotation Yrotation Xrotation 
					JOINT lForeArm
					{
						OFFSET 10.129278 0.000000 0.000000
						CHANNELS 3 Yrotation Zrotation Xrotation 
						JOINT lHand
						{
							OFFSET 8.486692 0.000000 0.000000
							CHANNELS 3 Zrotation Yrotation Xrotation 
							End Site
							{
								OFFSET 4.106464 0.000000 0.000000
							}
						}
					}
				}
			}
			JOINT rCollar
			{
				OFFSET -3.558935 6.707223 -0.821293
				CHANNELS 3 Yrotation Zrotation Xrotation 
				JOINT rShldr
				{
					OFFSET -3.148289 0.000000 0.000000
					CHANNELS 3 Zrotation Yrotation Xrotation 
					JOINT rForeArm
					{
						OFFSET -10.266159 0.000000 0.000000
						CHANNELS 3 Yrotation Zrotation Xrotation 
						JOINT rHand
						{
							OFFSET -8.349810 0.000000 0.000000
							CHANNELS 3 Zrotation Yrotation Xrotation 
							End Site
							{
								OFFSET -4.106464 0.000000 0.000000
							}
						}
					}
				}
			}
		}
	}
	JOINT lThigh
	{
		OFFSET 5.338403 -1.642589 1.368821
		CHANNELS 3 Xrotation Zrotation Yrotation 
		JOINT lShin
		{
			OFFSET -2.053232 -20.121670 0.000000
			CHANNELS 3 Xrotation Zrotation Yrotation 
			JOINT lFoot
			{
				OFFSET 0.000000 -19.300380 -1.231939
				CHANNELS 3 Xrotation Yrotation Zrotation 
				End Site
				{
					OFFSET 0.000000 -2.463878 4.653993
				}
			}
		}
	}
	JOINT rThigh
	{
		OFFSET -5.338403 -1.642589 1.368821
		CHANNELS 3 Xrotation Zrotation Yrotation 
		JOINT rShin
		{
			OFFSET 2.053232 -20.121670 0.000000
			CHANNELS 3 Xrotation Zrotation Yrotation 
			JOINT rFoot
			{
				OFFSET 0.000000 -19.300380 -1.231939
				CHANNELS 3 Xrotation Yrotation Zrotation 
				End Site
				{
					OFFSET 0.000000 -2.463878 4.653993
				}
			}
		}
	}
}
MOTION
Frames: 13
Frame Time: 0.033264
0.000000 43.528500 0.000000 0.000000 0.000000 0.000000 0.000000 0.000000 0.000000 0.000000 0.000000 0.000000 0.000000 0.000000 0.000000 0.000000 0.000000 0.000000 0.000000 0.000000 0.000000 0.000000 0.000000 0.000000 0.000000 0.000000 0.000000 0.000000 0.000000 0.000000 0.000000 0.000000 0.000000 0.000000 0.000000 0.000000 0.000000 0.000000 0.000000 0.000000 0.000000 0.000000 0.000000 0.000000 0.000000 0.000000 0.000000 0.000000 0.000000 0.000000 0.000000 0.000000 0.000000 0.000000 0.000000 0.000000 0.000000 0.000000 0.000000 0.000000 
0.000000 7.793022 -6.977692 39.009914 -66.001007 -91.995461 9.154881 12.794290 17.741196 16.973696 17.595825 16.618212 12.707701 -26.021269 -1.740090 -18.627005 25.662169 -10.999681 32.948914 30.369963 -36.315350 -28.493532 -36.727985 -27.997108 -133.851181 21.561344 35.956909 34.420979 15.291998 -0.120103 -11.289195 7.288716 -6.242574 13.020353 19.810606 49.664116 28.514135 3.011667 -14.290580 -37.152950 9.989797 -0.068040 -38.827766 15.055754 44.243889 51.141132 6.503413 -3.824420 22.102127 -0.283422 -7.227368 -52.861511 -25.275656 -51.835899 101.720039 -1.675497 0.847332 24.122175 0.076121 6.375665 
0.000000 7.793022 -6.977692 39.009914 -66.001007 -91.995461 9.154881 12.794290 17.741196 16.973696 17.595825 16.618212 12.707701 -26.021269 -1.740090 -18.414200 25.625114 -11.184599 32.948914 30.369963 -36.315350 -28.493532 -36.727985 -27.997108 -133.851181 21.561344 35.956909 34.420979 15.291998 -0.120103 -11.289195 7.288716 -6.242574 12.868966 19.647367 49.358334 29.195698 3.048049 -14.301518 -36.776894 10.044044 0.363477 -38.827766 15.055754 44.243889 51.141132 6.503413 -3.824420 22.102127 -0.283422 -7.227368 -52.861511 -25.275656 -51.835899 101.720039 -1.675497 0.847331 24.122175 0.076121 6.375665 
0.000000 7.793022 -6.977692 39.009914 -66.001007 -91.995461 9.154881 12.794290 17.741196 16.973696 17.595825 16.618212 12.707703 -26.021271 -1.740091 -18.201151 25.588652 -11.369765 32.948914 30.369965 -36.315350 -28.493532 -36.727985 -27.997108 -133.851181 21.561344 35.956909 34.420979 15.292000 -0.120103 -11.289196 7.288717 -6.242574 12.718571 19.483271 49.053139 29.879004 3.084391 -14.312926 -36.399837 10.095572 0.796038 -38.827770 15.055754 44.243893 51.141140 6.503414 -3.824421 22.102127 -0.283421 -7.227368 -52.861511 -25.275656 -51.835899 101.720039 -1.675497 0.847332 24.122175 0.076121 6.375666 
0.000000 7.793022 -6.977692 39.009914 -66.001007 -91.995461 9.154881 12.794291 17.741198 16.973696 17.595825 16.618212 12.707701 -26.021271 -1.740091 -17.987871 25.552786 -11.555179 32.948914 30.369963 -36.315350 -28.493532 -36.727985 -27.997108 -133.851181 21.561344 35.956909 34.420979 15.291998 -0.120103 -11.289195 7.288716 -6.242574 12.569171 19.318331 48.748539 30.563980 3.120680 -14.324792 -36.021809 10.144361 1.229607 -38.827766 15.055756 44.243893 51.141132 6.503413 -3.824420 22.102127 -0.283422 -7.227368 -52.861511 -25.275656 -51.835903 101.720039 -1.675497 0.847331 24.122177 0.076121 6.375665 
0.000000 7.793022 -6.977692 39.009914 -66.001007 -91.995461 9.154882 12.794291 17.741198 16.973696 17.595825 16.618214 12.707701 -26.021271 -1.740091 -17.774345 25.517508 -11.740827 32.948914 30.369963 -36.315350 -28.493532 -36.727985 -27.997108 -133.851181 21.561346 35.956913 34.420979 15.292000 -0.120103 -11.289195 7.288716 -6.242574 12.420775 19.152559 48.444546 31.250599 3.156909 -14.337122 -35.642849 10.190392 1.664145 -38.827770 15.055756 44.243889 51.141132 6.503413 -3.824420 22.102127 -0.283422 -7.227368 -52.861515 -25.275656 -51.835899 101.720039 -1.675497 0.847332 24.122177 0.076121 6.375665 
0.000000 7.793022 -6.977692 39.009918 -66.001007 -91.995468 9.154882 12.794291 17.741198 16.973698 17.595825 16.618214 12.707702 -26.021271 -1.740090 -17.560595 25.482828 -11.926710 32.948914 30.369963 -36.315350 -28.493534 -36.727989 -27.997107 -133.851181 21.561346 35.956913 34.420982 15.291998 -0.120103 -11.289196 7.288716 -6.242574 12.273378 18.985954 48.141132 31.938818 3.193071 -14.349916 -35.262989 10.233644 2.099614 -38.827766 15.055754 44.243889 51.141132 6.503413 -3.824420 22.102127 -0.283421 -7.227368 -52.861519 -25.275656 -51.835899 101.720039 -1.675497 0.847331 24.122177 0.076121 6.375666 
0.000000 7.793022 -6.977692 39.009914 -66.000999 -91.995453 9.154881 12.794290 17.741196 16.973694 17.595823 16.618212 12.707701 -26.021267 -1.740090 -17.346617 25.448751 -12.112824 32.948910 30.369963 -36.315350 -28.493532 -36.727985 -27.997103 -133.851181 21.561344 35.956905 34.420979 15.291998 -0.120103 -11.289195 7.288716 -6.242574 12.126994 18.818535 47.838345 32.628586 3.229156 -14.363177 -34.882275 10.274103 2.535980 -38.827766 15.055750 44.243885 51.141132 6.503413 -3.824420 22.102127 -0.283421 -7.227367 -52.861511 -25.275654 -51.835896 101.720039 -1.675497 0.847331 24.122175 0.076121 6.375665 
0.000000 7.793022 -6.977692 39.009911 -66.000999 -91.995453 9.154881 12.794290 17.741196 16.973696 17.595825 16.618212 12.707701 -26.021265 -1.740090 -17.132425 25.415287 -12.299170 32.948910 30.369963 -36.315350 -28.493530 -36.727982 -27.997101 -133.851181 21.561344 35.956909 34.420971 15.291998 -0.120104 -11.289195 7.288715 -6.242573 11.981616 18.650301 47.536152 33.319866 3.265155 -14.376902 -34.500748 10.311750 2.973198 -38.827766 15.055754 44.243889 51.141132 6.503413 -3.824420 22.102127 -0.283422 -7.227368 -52.861511 -25.275656 -51.835899 101.720039 -1.675497 0.847332 24.122173 0.076121 6.375665 
0.000000 7.793022 -6.977692 39.009914 -66.001007 -91.995461 9.154881 12.794290 17.741196 16.973696 17.595825 16.618212 12.707701 -26.021269 -1.740090 -16.918011 25.382414 -12.485731 32.948910 30.369963 -36.315350 -28.493526 -36.727985 -27.997108 -133.851181 21.561344 35.956909 34.420975 15.291998 -0.120103 -11.289195 7.288716 -6.242574 11.837253 18.481264 47.234566 34.012611 3.301061 -14.391089 -34.118431 10.346571 3.411233 -38.827766 15.055754 44.243889 51.141129 6.503413 -3.824419 22.102127 -0.283422 -7.227368 -52.861507 -25.275654 -51.835899 101.720039 -1.675497 0.847332 24.122173 0.076120 6.375665 
0.000000 7.793022 -6.977692 39.009914 -66.001007 -91.995461 9.154881 12.794290 17.741196 16.973696 17.595825 16.618212 12.707701 -26.021269 -1.740090 -16.703384 25.350153 -12.672510 32.948910 30.369963 -36.315350 -28.493528 -36.727985 -27.997105 -133.851166 21.561344 35.956909 34.420979 15.291998 -0.120103 -11.289195 7.288715 -6.242574 11.693902 18.311430 46.933586 34.706772 3.336864 -14.405740 -33.735382 10.378551 3.850041 -38.827766 15.055754 44.243885 51.141132 6.503413 -3.824420 22.102125 -0.283422 -7.227367 -52.861507 -25.275654 -51.835899 101.720039 -1.675497 0.847331 24.122175 0.076120 6.375665 
0.000000 7.793022 -6.977692 39.009918 -66.000999 -91.995461 9.154881 12.794290 17.741196 16.973696 17.595825 16.618212 12.707701 -26.021269 -1.740090 -16.488554 25.318508 -12.859503 32.948910 30.369963 -36.315350 -28.493532 -36.727985 -27.997108 -133.851181 21.561344 35.956909 34.420979 15.291998 -0.120103 -11.289195 7.288716 -6.242574 11.551572 18.140814 46.633221 35.402306 3.372555 -14.420858 -33.351631 10.407672 4.289587 -38.827766 15.055754 44.243889 51.141132 6.503413 -3.824420 22.102127 -0.283422 -7.227368 -52.861511 -25.275654 -51.835896 101.720039 -1.675497 0.847332 24.122175 0.076121 6.375665 
0.000000 7.793022 -6.977692 39.009914 -66.001007 -91.995461 9.154881 12.794290 17.741196 16.973696 17.595825 16.618212 12.707701 -26.021269 -1.740090 -16.273518 25.287470 -13.046703 32.948910 30.369963 -36.315350 -28.493532 -36.727985 -27.997108 -133.851181 21.561344 35.956909 34.420979 15.291998 -0.120103 -11.289195 7.288716 -6.242574 11.410262 17.969416 46.333458 36.099155 3.408125 -14.436433 -32.967224 10.433923 4.729827 -38.827766 15.055754 44.243889 51.141132 6.503413 -3.824420 22.102127 -0.283422 -7.227368 -52.861511 -25.275656 -51.835899 101.720039 -1.675497 0.847332 24.122175 0.076121 6.375665 
